M48
; DRILL file {KiCad (5.1.7)-1} date 11/07/20 20:41:06
; FORMAT={-:-/ absolute / inch / decimal}
; #@! TF.CreationDate,2020-11-07T20:41:06-03:00
; #@! TF.GenerationSoftware,Kicad,Pcbnew,(5.1.7)-1
; #@! TF.FileFunction,Plated,1,2,PTH
FMAT,2
INCH
T1C0.0157
T2C0.0295
T3C0.0394
%
G90
G05
T1
X5.0498Y-4.2418
X5.11Y-3.98
X5.12Y-3.5
X5.12Y-3.58
X5.12Y-3.79
X5.12Y-3.8294
X5.1415Y-3.8623
X5.15Y-4.2
X5.19Y-3.69
X5.2016Y-3.8885
X5.23Y-3.42
X5.24Y-3.8
X5.2402Y-3.6802
X5.27Y-3.48
X5.27Y-4.21
X5.3Y-3.38
X5.3Y-3.67
X5.3Y-3.8
X5.32Y-4.34
X5.35Y-3.77
X5.38Y-3.53
X5.46Y-3.41
X5.46Y-3.61
X5.49Y-4.1
X5.5Y-4.32
X5.51Y-3.81
X5.52Y-3.55
X5.53Y-3.71
X5.5319Y-3.4563
X5.57Y-3.96
X5.5742Y-4.1498
X5.58Y-3.9
X5.61Y-3.73
X5.62Y-3.57
X5.6402Y-3.4998
X5.68Y-4.05
X5.7Y-3.4
X5.7187Y-4.0626
X5.74Y-3.56
X5.75Y-3.48
X5.75Y-4.3185
X5.77Y-3.6635
X5.78Y-3.38
X5.79Y-4.04
X5.81Y-3.58
X5.81Y-3.69
X5.81Y-4.25
X5.81Y-4.34
X5.82Y-4.16
X5.8498Y-4.2598
X5.85Y-4.2185
X5.86Y-4.34
X5.88Y-3.38
X5.9Y-4.19
X5.94Y-4.1238
X5.94Y-4.29
X5.96Y-3.38
X5.98Y-3.69
X5.98Y-3.76
X5.98Y-4.34
X6.02Y-3.38
X6.05Y-4.34
X6.12Y-3.38
X6.14Y-4.34
X6.2Y-4.34
X6.22Y-3.38
X6.29Y-4.34
X6.32Y-3.38
X6.39Y-4.34
X6.4Y-3.38
X6.4348Y-3.6215
X6.5Y-4.34
X6.5146Y-3.6258
X6.52Y-3.39
X6.53Y-3.57
X6.6Y-4.34
X6.62Y-3.39
T2
X5.19Y-3.74
X5.24Y-3.74
X5.29Y-3.74
T3
X5.52Y-3.32
X5.62Y-3.32
X5.72Y-3.32
X5.82Y-3.32
X5.92Y-3.32
X6.02Y-3.32
X6.12Y-3.32
X6.22Y-3.32
X6.32Y-3.32
X6.42Y-3.32
X6.52Y-3.32
X6.62Y-3.32
X5.23Y-3.32
X5.33Y-3.32
X5.12Y-4.4
X5.22Y-4.4
X5.32Y-4.4
X5.42Y-4.4
X5.52Y-4.4
X5.62Y-4.4
X5.72Y-4.4
X5.82Y-4.4
X5.92Y-4.4
X6.02Y-4.4
X6.12Y-4.4
X6.22Y-4.4
X6.32Y-4.4
X6.42Y-4.4
X6.52Y-4.4
X6.62Y-4.4
T0
M30
